<svg xmlns="http://www.w3.org/2000/svg" viewBox="0 0 500 500"><g id="freepik--Floor--inject-39"><g id="freepik--floor--inject-39"><path id="freepik--floor--inject-39" d="M94.9,265.21c-85.67,49.45-85.67,129.64,0,179.09s224.55,49.46,310.21,0,85.67-129.64,0-179.09S180.56,215.75,94.9,265.21Z" style="fill:#f5f5f5"></path><g id="freepik--Crater--inject-39"><ellipse cx="85.88" cy="326.41" rx="27.44" ry="15.84" transform="translate(-4.68 1.27) rotate(-0.82)" style="fill:#f0f0f0"></ellipse><ellipse cx="85.88" cy="326.41" rx="25.22" ry="13.24" transform="translate(-4.68 1.27) rotate(-0.82)" style="fill:#e0e0e0"></ellipse><path d="M103.74,321.83c3.66,1.86,6,4.17,7,6.62-.86,2.56-3.13,5-6.86,7.06-9.78,5.32-25.74,5.55-35.66.52-3.67-1.86-6-4.17-7-6.62.85-2.56,3.13-5,6.86-7.06C77.85,317,93.82,316.81,103.74,321.83Z" style="opacity:0.1"></path><path d="M106,313.31c5.35.75,9.83,5.74,11.42,10.7.51,1.57.78,3.22,1.25,4.8a19.68,19.68,0,0,0,1.67,4,20.35,20.35,0,0,0,2.55,3.57,30.59,30.59,0,0,1,2.94,3c.25.37-.23,1.09-.68.92a9.49,9.49,0,0,1-3.33-2.54,20.55,20.55,0,0,1-2.63-3.45,29.17,29.17,0,0,1-3-8.36,18.54,18.54,0,0,0-3.65-7.18,24.43,24.43,0,0,0-6.52-5.22S105.94,313.3,106,313.31Z" style="fill:#e0e0e0"></path><path d="M49.16,336.5c.46-1,1.5-1.55,2.18-2.41a12.77,12.77,0,0,0,1.78-3.29c1-2.56,1.39-5.3,2.37-7.86a15.8,15.8,0,0,1,4.4-6.32,18.33,18.33,0,0,1,3.2-2.16,14.31,14.31,0,0,1,1.68-.79c.26-.1.54-.19.81-.28a4.38,4.38,0,0,1,1.08-.14s.09.11,0,.13a30.32,30.32,0,0,0-6.24,4.51,16.17,16.17,0,0,0-3.94,7,48.77,48.77,0,0,1-2.31,7.49c-.88,1.88-2.54,4.64-4.85,4.78C49.05,337.14,49.08,336.67,49.16,336.5Z" style="fill:#e0e0e0"></path><path d="M111,337.28c.06-.14.18-.31.35-.31.6,0,.93.41,1.29.83s.61.76.89,1.15a20.07,20.07,0,0,1,1.67,2.78c.72,1.49,1.07,3.85,2.75,4.61.18.08.16.55-.07.53-2.26-.24-2.92-2.54-3.77-4.27a17.09,17.09,0,0,0-1.64-2.72c-.31-.42-.63-.83-1-1.22S110.74,337.87,111,337.28Z" style="fill:#e0e0e0"></path><path d="M101.26,342.54c0-.33.52-.79.79-.45a8.43,8.43,0,0,1,1.13,2.5c.29.82.56,1.64.81,2.47s.49,1.65.71,2.48a10.46,10.46,0,0,1,.28,1.26,3.77,3.77,0,0,1,0,1.38c-.07.25-.42.62-.68.35a4,4,0,0,1-.66-1.4c-.13-.39-.24-.78-.35-1.17-.22-.83-.46-1.65-.71-2.48s-.49-1.62-.75-2.43A8.13,8.13,0,0,1,101.26,342.54Z" style="fill:#e0e0e0"></path><path d="M85.66,349.07a27.6,27.6,0,0,1-.19-4.54c0-.29.52-.67.6-.23.3,1.49.46,3,.67,4.5.1.73.22,1.46.32,2.19a9.81,9.81,0,0,1,.11,1.09,2.6,2.6,0,0,1,0,1.11c-.06.18-.34.45-.53.25s-.3-.7-.42-1.09a7.29,7.29,0,0,1-.23-1C85.83,350.57,85.74,349.82,85.66,349.07Z" style="fill:#e0e0e0"></path><path d="M69.9,349.83c0-.33.07-.66.12-1,.1-.6.21-1.21.31-1.81a21.29,21.29,0,0,1,1-4.17c.12-.3.56-.47.6,0a18.36,18.36,0,0,1-.34,4.11c-.1.64-.19,1.29-.28,1.93a7.25,7.25,0,0,1-.17.93,3.05,3.05,0,0,1-.52,1.38c-.23.27-.46.2-.66,0S69.87,350.15,69.9,349.83Z" style="fill:#e0e0e0"></path><path d="M57.43,347.43a5.77,5.77,0,0,1,1.11-1.51c.22-.26.44-.54.67-.8q.65-.74,1.23-1.53a36.91,36.91,0,0,0,3-4.88c.27-.52,1-.27.76.31a18.1,18.1,0,0,1-2.54,4.92c-.48.67-1,1.31-1.53,1.93A10,10,0,0,1,59.05,347a5.91,5.91,0,0,1-1.19.88A.31.31,0,0,1,57.43,347.43Z" style="fill:#e0e0e0"></path><path d="M51,343.72a6.36,6.36,0,0,1,1.31-1.28c.33-.29.66-.59,1-.9.65-.63,1.22-1.32,1.8-2a14.77,14.77,0,0,0,1.47-2.14c.49-.85.87-1.76,1.38-2.59.16-.26.4-.06.37.19a8.7,8.7,0,0,1-1,2.65,28.18,28.18,0,0,1-1.53,2.52,16.51,16.51,0,0,1-1.83,2.18,8.06,8.06,0,0,1-2.53,2C51,344.48,50.75,344,51,343.72Z" style="fill:#e0e0e0"></path></g><g id="freepik--crater--inject-39"><ellipse cx="389.52" cy="383.48" rx="31.4" ry="18.13" transform="translate(-5.47 5.64) rotate(-0.82)" style="fill:#f0f0f0"></ellipse><ellipse cx="389.52" cy="383.48" rx="28.86" ry="15.15" transform="translate(-5.47 5.64) rotate(-0.82)" style="fill:#e0e0e0"></ellipse><path d="M410,378.24c4.19,2.13,6.84,4.77,8,7.57-1,2.94-3.58,5.77-7.85,8.09-11.18,6.08-29.46,6.34-40.81.59-4.19-2.13-6.84-4.77-8-7.57,1-2.94,3.58-5.77,7.85-8.09C380.34,372.75,398.61,372.49,410,378.24Z" style="opacity:0.1"></path><path d="M412.58,368.48c6.12.86,11.25,6.58,13.07,12.25.58,1.8.89,3.68,1.44,5.5a23.35,23.35,0,0,0,1.9,4.53,23,23,0,0,0,2.93,4.08c1.05,1.18,2.49,2.11,3.36,3.42.28.42-.27,1.24-.78,1a10.78,10.78,0,0,1-3.81-2.9,23.16,23.16,0,0,1-3-3.95c-1.83-3-2.6-6.2-3.46-9.57a21.2,21.2,0,0,0-4.18-8.21,27.84,27.84,0,0,0-7.45-6S412.47,368.47,412.58,368.48Z" style="fill:#e0e0e0"></path><path d="M347.5,395c.52-1.13,1.71-1.78,2.49-2.76a14.55,14.55,0,0,0,2-3.76c1.13-2.94,1.6-6.07,2.72-9a18.16,18.16,0,0,1,5-7.23,22,22,0,0,1,3.66-2.47,16.92,16.92,0,0,1,1.93-.9l.93-.32a4.63,4.63,0,0,1,1.24-.16c.05,0,.09.12.05.15a35.08,35.08,0,0,0-7.14,5.16,18.5,18.5,0,0,0-4.51,8c-.83,2.88-1.36,5.85-2.64,8.58-1,2.15-2.91,5.31-5.56,5.47C347.37,395.76,347.41,395.22,347.5,395Z" style="fill:#e0e0e0"></path><path d="M418.27,395.92a.51.51,0,0,1,.41-.36c.68,0,1.06.48,1.46,1s.71.86,1,1.31a22.26,22.26,0,0,1,1.9,3.18c.83,1.71,1.23,4.41,3.15,5.28.21.09.19.63-.08.61-2.58-.28-3.33-2.91-4.3-4.9a20.81,20.81,0,0,0-1.88-3.1c-.36-.48-.73-.95-1.13-1.4S418,396.59,418.27,395.92Z" style="fill:#e0e0e0"></path><path d="M407.12,401.94c0-.38.6-.91.91-.51a9.43,9.43,0,0,1,1.29,2.85c.33.94.64,1.88.93,2.83s.55,1.89.81,2.84a11.54,11.54,0,0,1,.32,1.44,4.25,4.25,0,0,1,0,1.59c-.08.28-.48.71-.77.4a4.68,4.68,0,0,1-.76-1.61c-.15-.44-.28-.89-.4-1.34-.26-.95-.53-1.89-.82-2.83s-.56-1.86-.85-2.78A9.38,9.38,0,0,1,407.12,401.94Z" style="fill:#e0e0e0"></path><path d="M389.27,409.41a32.23,32.23,0,0,1-.22-5.2c0-.32.59-.76.69-.26.34,1.71.53,3.43.76,5.16.12.83.26,1.66.37,2.5.06.42.1.83.13,1.25a3,3,0,0,1-.05,1.27c-.06.2-.39.51-.61.29s-.33-.8-.48-1.25a9.17,9.17,0,0,1-.26-1.18C389.47,411.14,389.37,410.27,389.27,409.41Z" style="fill:#e0e0e0"></path><path d="M371.23,410.28c0-.37.08-.75.14-1.12.12-.69.24-1.38.35-2.07a24.39,24.39,0,0,1,1.15-4.77c.13-.35.64-.54.68,0a20.69,20.69,0,0,1-.39,4.7c-.11.73-.21,1.47-.31,2.21-.06.35-.11.72-.19,1.06a3.63,3.63,0,0,1-.61,1.58c-.26.31-.52.24-.75,0S371.19,410.65,371.23,410.28Z" style="fill:#e0e0e0"></path><path d="M357,407.54a6.93,6.93,0,0,1,1.28-1.73c.26-.3.5-.62.76-.92.5-.56,1-1.14,1.41-1.74a41.67,41.67,0,0,0,3.43-5.59c.31-.6,1.09-.31.88.35a21.05,21.05,0,0,1-2.91,5.63,25,25,0,0,1-1.75,2.21,13.19,13.19,0,0,1-1.24,1.24,6.52,6.52,0,0,1-1.36,1A.35.35,0,0,1,357,407.54Z" style="fill:#e0e0e0"></path><path d="M349.54,403.3a7.21,7.21,0,0,1,1.5-1.47c.38-.34.76-.68,1.12-1,.73-.72,1.39-1.5,2-2.29a16.65,16.65,0,0,0,1.69-2.45c.56-1,1-2,1.57-3,.18-.3.47-.07.42.22a9.45,9.45,0,0,1-1.15,3,31,31,0,0,1-1.74,2.88,18,18,0,0,1-2.11,2.5A8.93,8.93,0,0,1,350,404C349.55,404.16,349.31,403.66,349.54,403.3Z" style="fill:#e0e0e0"></path></g><g id="freepik--crater--inject-39"><path d="M386.3,314.21c-7.14,4.26-7.05,11,.21,15.05s18.94,3.89,26.08-.37,7-11-.22-15.06S393.44,310,386.3,314.21Z" style="fill:#f0f0f0"></path><path d="M387.37,315.43c-6.57,3.57-6.49,9.2.18,12.58s17.4,3.23,24-.34,6.49-9.2-.18-12.58S393.94,311.86,387.37,315.43Z" style="fill:#e0e0e0"></path><path d="M411.45,318.47a9.25,9.25,0,0,1,4.68,4.45c-.57,1.72-2.1,3.39-4.61,4.75-6.57,3.57-17.3,3.72-24,.34a9.24,9.24,0,0,1-4.68-4.44c.57-1.73,2.1-3.39,4.61-4.75C394.05,315.25,404.78,315.09,411.45,318.47Z" style="opacity:0.1"></path><path d="M413,312.74c3.59.5,6.6,3.86,7.67,7.19.34,1.06.52,2.17.84,3.23a13.86,13.86,0,0,0,1.12,2.66,13.63,13.63,0,0,0,1.72,2.4,20.85,20.85,0,0,1,2,2c.16.25-.16.73-.46.61a6.42,6.42,0,0,1-2.24-1.7,14.23,14.23,0,0,1-1.77-2.32,20.13,20.13,0,0,1-2-5.62,12.43,12.43,0,0,0-2.45-4.83,16.72,16.72,0,0,0-4.38-3.51S412.92,312.73,413,312.74Z" style="fill:#e0e0e0"></path><path d="M374.76,328.33c.31-.66,1-1,1.47-1.62a8.73,8.73,0,0,0,1.19-2.21c.66-1.72.94-3.56,1.6-5.29a10.57,10.57,0,0,1,3-4.24,12.87,12.87,0,0,1,2.15-1.45,9.67,9.67,0,0,1,1.13-.53l.55-.19a3,3,0,0,1,.73-.1s.05.07,0,.09a20.52,20.52,0,0,0-4.19,3,10.78,10.78,0,0,0-2.65,4.68,33.63,33.63,0,0,1-1.55,5c-.6,1.27-1.71,3.12-3.27,3.22C374.69,328.76,374.71,328.44,374.76,328.33Z" style="fill:#e0e0e0"></path><path d="M416.33,328.86a.32.32,0,0,1,.24-.22c.39,0,.62.28.86.57s.41.5.6.77a13,13,0,0,1,1.12,1.87c.48,1,.72,2.59,1.85,3.09.12.06.11.38-.05.36-1.51-.16-2-1.71-2.53-2.87a12.16,12.16,0,0,0-1.1-1.83c-.21-.28-.43-.55-.66-.82S416.15,329.25,416.33,328.86Z" style="fill:#e0e0e0"></path><path d="M409.78,332.39c0-.22.35-.53.53-.3a5.56,5.56,0,0,1,.76,1.68c.19.55.38,1.1.55,1.66s.32,1.1.47,1.66a6.14,6.14,0,0,1,.19.85,2.43,2.43,0,0,1,0,.93c0,.17-.28.42-.45.23a2.73,2.73,0,0,1-.45-.94c-.09-.26-.16-.52-.23-.78-.15-.56-.31-1.12-.48-1.67s-.33-1.09-.5-1.63A5.56,5.56,0,0,1,409.78,332.39Z" style="fill:#e0e0e0"></path><path d="M399.29,336.78a20.83,20.83,0,0,1-.13-3.06c0-.18.36-.44.41-.15.2,1,.31,2,.45,3,.07.49.15,1,.22,1.47,0,.24.05.48.07.73a1.9,1.9,0,0,1,0,.75c0,.12-.23.3-.36.17s-.2-.47-.28-.74a3.85,3.85,0,0,1-.16-.69C399.41,337.79,399.35,337.28,399.29,336.78Z" style="fill:#e0e0e0"></path><path d="M388.7,337.29q0-.33.09-.66c.06-.4.13-.81.2-1.21a14.94,14.94,0,0,1,.67-2.81c.08-.2.38-.31.41,0a12.21,12.21,0,0,1-.23,2.76c-.07.43-.13.87-.19,1.3a6.17,6.17,0,0,1-.11.62,2.14,2.14,0,0,1-.35.93.26.26,0,0,1-.44,0C388.6,338,388.68,337.5,388.7,337.29Z" style="fill:#e0e0e0"></path><path d="M380.32,335.68a4.13,4.13,0,0,1,.75-1c.15-.17.29-.36.45-.54s.56-.67.82-1a25.12,25.12,0,0,0,2-3.28c.18-.35.64-.19.51.2a12.35,12.35,0,0,1-1.7,3.31c-.33.45-.67.88-1,1.3a8.38,8.38,0,0,1-.73.73,4.08,4.08,0,0,1-.8.58A.21.21,0,0,1,380.32,335.68Z" style="fill:#e0e0e0"></path><path d="M376,333.19a4.59,4.59,0,0,1,.89-.87l.65-.6c.43-.43.82-.89,1.21-1.35a10.21,10.21,0,0,0,1-1.44c.33-.57.58-1.18.92-1.74.11-.17.28,0,.25.13a5.66,5.66,0,0,1-.68,1.78,16.13,16.13,0,0,1-1,1.69,10.26,10.26,0,0,1-1.24,1.47,5.34,5.34,0,0,1-1.7,1.33C376,333.69,375.83,333.4,376,333.19Z" style="fill:#e0e0e0"></path></g><g id="freepik--crater--inject-39"><ellipse cx="113.13" cy="398.48" rx="22.88" ry="13.21" transform="translate(-5.72 1.67) rotate(-0.82)" style="fill:#f0f0f0"></ellipse><path d="M98.15,390.89c-8.15,4.42-8.05,11.41.22,15.61s21.59,4,29.74-.43,8-11.42-.23-15.61S106.29,386.46,98.15,390.89Z" style="fill:#e0e0e0"></path><path d="M128,394.66c3,1.55,5,3.48,5.81,5.52-.72,2.13-2.61,4.2-5.72,5.89-8.15,4.43-21.47,4.62-29.74.43-3.05-1.55-5-3.48-5.81-5.52.71-2.14,2.61-4.2,5.72-5.89C106.43,390.66,119.75,390.47,128,394.66Z" style="opacity:0.1"></path><path d="M129.92,387.55c4.47.62,8.2,4.79,9.53,8.92.42,1.32.65,2.69,1,4a16.22,16.22,0,0,0,3.52,6.27,25,25,0,0,1,2.45,2.49c.21.31-.19.91-.57.77a7.93,7.93,0,0,1-2.77-2.12,16.58,16.58,0,0,1-2.19-2.88,24,24,0,0,1-2.52-7,15.59,15.59,0,0,0-3-6,20.29,20.29,0,0,0-5.43-4.36S129.85,387.54,129.92,387.55Z" style="fill:#e0e0e0"></path><path d="M82.51,406.89c.38-.82,1.25-1.29,1.81-2a10.72,10.72,0,0,0,1.49-2.74c.81-2.14,1.16-4.42,2-6.56a13.11,13.11,0,0,1,3.66-5.27,15.43,15.43,0,0,1,2.67-1.8,10.45,10.45,0,0,1,1.4-.65c.22-.09.45-.17.68-.24a3.83,3.83,0,0,1,.9-.12s.07.09,0,.11a25.33,25.33,0,0,0-5.2,3.76,13.5,13.5,0,0,0-3.29,5.8,41,41,0,0,1-1.92,6.25c-.74,1.57-2.12,3.87-4,4C82.42,407.42,82.44,407,82.51,406.89Z" style="fill:#e0e0e0"></path><path d="M134.07,407.54c.05-.12.15-.26.3-.26.49,0,.77.35,1.07.7s.51.62.74.95a15.15,15.15,0,0,1,1.39,2.32c.6,1.25.89,3.21,2.29,3.85.15.06.14.46-.05.44-1.88-.2-2.43-2.12-3.14-3.57a15.28,15.28,0,0,0-1.37-2.26c-.26-.35-.53-.69-.82-1S133.86,408,134.07,407.54Z" style="fill:#e0e0e0"></path><path d="M126,411.92c0-.27.43-.66.66-.37a7.11,7.11,0,0,1,.94,2.08c.24.69.47,1.37.68,2.06s.4,1.38.59,2.07a9.35,9.35,0,0,1,.23,1.05,3.24,3.24,0,0,1,0,1.16c-.06.2-.36.51-.57.29a3.5,3.5,0,0,1-.55-1.17c-.11-.32-.2-.65-.29-1-.19-.69-.39-1.38-.6-2.06s-.41-1.35-.62-2A6.63,6.63,0,0,1,126,411.92Z" style="fill:#e0e0e0"></path><path d="M112.94,417.37a22.85,22.85,0,0,1-.16-3.79c0-.23.43-.55.51-.19.24,1.25.38,2.5.55,3.76.08.6.18,1.21.27,1.82,0,.31.07.6.09.91a2.19,2.19,0,0,1,0,.92c0,.15-.28.38-.45.22a2,2,0,0,1-.34-.91,6.68,6.68,0,0,1-.2-.86C113.08,418.63,113,418,112.94,417.37Z" style="fill:#e0e0e0"></path><path d="M99.8,418c0-.27.06-.54.1-.81.09-.51.17-1,.26-1.51a18,18,0,0,1,.83-3.48c.1-.25.47-.39.5,0a15.19,15.19,0,0,1-.28,3.43c-.08.54-.16,1.07-.23,1.61,0,.26-.08.52-.14.78a2.61,2.61,0,0,1-.44,1.15c-.19.22-.38.17-.55,0S99.77,418.27,99.8,418Z" style="fill:#e0e0e0"></path><path d="M89.4,416a4.87,4.87,0,0,1,.92-1.25l.56-.67c.36-.41.7-.84,1-1.28a30.2,30.2,0,0,0,2.5-4.07.35.35,0,1,1,.64.26,15.21,15.21,0,0,1-2.12,4.1,18.07,18.07,0,0,1-1.28,1.61,8.59,8.59,0,0,1-.9.91,4.91,4.91,0,0,1-1,.72A.26.26,0,0,1,89.4,416Z" style="fill:#e0e0e0"></path><path d="M84,412.91a5.82,5.82,0,0,1,1.09-1.07q.42-.36.81-.75c.54-.52,1-1.1,1.5-1.67a11.5,11.5,0,0,0,1.23-1.78c.41-.71.72-1.46,1.15-2.16.13-.22.33-.05.3.16a7.16,7.16,0,0,1-.84,2.21A22.54,22.54,0,0,1,88,410a13.91,13.91,0,0,1-1.53,1.82,6.61,6.61,0,0,1-2.11,1.65C84,413.54,83.83,413.18,84,412.91Z" style="fill:#e0e0e0"></path></g></g></g><g id="freepik--Stars--inject-39"><g id="freepik--stars--inject-39"><path d="M330.64,43.46a1.06,1.06,0,1,1-.93-1.18A1.06,1.06,0,0,1,330.64,43.46Z" style="fill:#FFFFFF"></path><path d="M121.67,96.83a2,2,0,1,1-2-2A2,2,0,0,1,121.67,96.83Z" style="fill:#FFFFFF"></path><path d="M121.67,96.83a2,2,0,1,1-2-2A2,2,0,0,1,121.67,96.83Z" style="fill:#fff;opacity:0.7000000000000001"></path><path d="M185.88,50.67a2.12,2.12,0,1,1-.33-3A2.13,2.13,0,0,1,185.88,50.67Z" style="fill:#FFFFFF"></path><path d="M185.88,50.67a2.12,2.12,0,1,1-.33-3A2.13,2.13,0,0,1,185.88,50.67Z" style="fill:#fff;opacity:0.7000000000000001"></path><path d="M345.25,48.56a2.12,2.12,0,1,1-1.86-2.36A2.13,2.13,0,0,1,345.25,48.56Z" style="fill:#FFFFFF"></path><path d="M345.25,48.56a2.12,2.12,0,1,1-1.86-2.36A2.13,2.13,0,0,1,345.25,48.56Z" style="fill:#fff;opacity:0.7000000000000001"></path><path d="M52.52,142.51a2,2,0,1,1-2.65-.87A2,2,0,0,1,52.52,142.51Z" style="fill:#FFFFFF"></path><path d="M52.52,142.51a2,2,0,1,1-2.65-.87A2,2,0,0,1,52.52,142.51Z" style="fill:#fff;opacity:0.7000000000000001"></path><path d="M395.45,227.87a2.12,2.12,0,1,1-2.8,1.1A2.13,2.13,0,0,1,395.45,227.87Z" style="fill:#FFFFFF"></path><path d="M395.45,227.87a2.12,2.12,0,1,1-2.8,1.1A2.13,2.13,0,0,1,395.45,227.87Z" style="fill:#fff;opacity:0.7000000000000001"></path><path d="M101.16,53.94a2.12,2.12,0,1,1-1.56,2.57A2.11,2.11,0,0,1,101.16,53.94Z" style="fill:#FFFFFF"></path><path d="M101.16,53.94a2.12,2.12,0,1,1-1.56,2.57A2.11,2.11,0,0,1,101.16,53.94Z" style="fill:#fff;opacity:0.7000000000000001"></path><path d="M462.82,275.07a2,2,0,1,1-2-2A2,2,0,0,1,462.82,275.07Z" style="fill:#FFFFFF"></path><path d="M462.82,275.07a2,2,0,1,1-2-2A2,2,0,0,1,462.82,275.07Z" style="fill:#fff;opacity:0.7000000000000001"></path><path d="M461.77,142.22a3.55,3.55,0,1,1-3.55-3.54A3.55,3.55,0,0,1,461.77,142.22Z" style="fill:#FFFFFF"></path><path d="M461.77,142.22a3.55,3.55,0,1,1-3.55-3.54A3.55,3.55,0,0,1,461.77,142.22Z" style="fill:#fff;opacity:0.7000000000000001"></path><path d="M451.18,151.91a2.12,2.12,0,1,1-2.12-2.12A2.12,2.12,0,0,1,451.18,151.91Z" style="fill:#FFFFFF"></path><path d="M451.18,151.91a2.12,2.12,0,1,1-2.12-2.12A2.12,2.12,0,0,1,451.18,151.91Z" style="fill:#fff;opacity:0.7000000000000001"></path><path d="M401.63,104.53a2,2,0,1,0,2.65-.87A2,2,0,0,0,401.63,104.53Z" style="fill:#FFFFFF"></path><path d="M401.63,104.53a2,2,0,1,0,2.65-.87A2,2,0,0,0,401.63,104.53Z" style="fill:#fff;opacity:0.7000000000000001"></path><path d="M465.9,214.69a2.57,2.57,0,1,0,3.45-1.14A2.58,2.58,0,0,0,465.9,214.69Z" style="fill:#FFFFFF"></path><path d="M465.9,214.69a2.57,2.57,0,1,0,3.45-1.14A2.58,2.58,0,0,0,465.9,214.69Z" style="fill:#fff;opacity:0.7000000000000001"></path><path d="M364.05,156a2,2,0,1,1-2-2A2,2,0,0,1,364.05,156Z" style="fill:#FFFFFF"></path><path d="M364.05,156a2,2,0,1,1-2-2A2,2,0,0,1,364.05,156Z" style="fill:#fff;opacity:0.8"></path><path d="M445.7,40.62a2,2,0,1,1-2-2A2,2,0,0,1,445.7,40.62Z" style="fill:#FFFFFF"></path><path d="M445.7,40.62a2,2,0,1,1-2-2A2,2,0,0,1,445.7,40.62Z" style="fill:#fff;opacity:0.8"></path><path d="M194,46.1a1.06,1.06,0,1,1-.16-1.49A1.06,1.06,0,0,1,194,46.1Z" style="fill:#FFFFFF"></path><path d="M194,46.1a1.06,1.06,0,1,1-.16-1.49A1.06,1.06,0,0,1,194,46.1Z" style="fill:#fff;opacity:0.8"></path><path d="M190.68,88a1.06,1.06,0,1,1-.16-1.49A1.06,1.06,0,0,1,190.68,88Z" style="fill:#FFFFFF"></path><path d="M190.68,88a1.06,1.06,0,1,1-.16-1.49A1.06,1.06,0,0,1,190.68,88Z" style="fill:#fff;opacity:0.8"></path><path d="M330.64,43.46a1.06,1.06,0,1,1-.93-1.18A1.06,1.06,0,0,1,330.64,43.46Z" style="fill:#fff;opacity:0.8"></path><path d="M394,109.8a1.07,1.07,0,1,1-.78,1.29A1.07,1.07,0,0,1,394,109.8Z" style="fill:#FFFFFF"></path><path d="M394,109.8a1.07,1.07,0,1,1-.78,1.29A1.07,1.07,0,0,1,394,109.8Z" style="fill:#fff;opacity:0.8"></path><path d="M44.42,222.14a3.46,3.46,0,1,1-4.7,1.39A3.46,3.46,0,0,1,44.42,222.14Z" style="fill:#FFFFFF"></path><path d="M44.42,222.14a3.46,3.46,0,1,1-4.7,1.39A3.46,3.46,0,0,1,44.42,222.14Z" style="fill:#fff;opacity:0.8"></path><path d="M388.91,221.19a1.06,1.06,0,1,1-1.4.55A1.05,1.05,0,0,1,388.91,221.19Z" style="fill:#FFFFFF"></path><path d="M388.91,221.19a1.06,1.06,0,1,1-1.4.55A1.05,1.05,0,0,1,388.91,221.19Z" style="fill:#fff;opacity:0.8"></path><path d="M91.91,52.6a1.06,1.06,0,1,1-.78,1.29A1.06,1.06,0,0,1,91.91,52.6Z" style="fill:#FFFFFF"></path><path d="M91.91,52.6a1.06,1.06,0,1,1-.78,1.29A1.06,1.06,0,0,1,91.91,52.6Z" style="fill:#fff;opacity:0.8"></path><path d="M99.9,43.65a1.06,1.06,0,1,1-.78,1.29A1.06,1.06,0,0,1,99.9,43.65Z" style="fill:#FFFFFF"></path><path d="M99.9,43.65a1.06,1.06,0,1,1-.78,1.29A1.06,1.06,0,0,1,99.9,43.65Z" style="fill:#fff;opacity:0.8"></path><path d="M264.06,56.17a2,2,0,1,1-2.18,1.73A2,2,0,0,1,264.06,56.17Z" style="fill:#FFFFFF"></path><path d="M264.06,56.17a2,2,0,1,1-2.18,1.73A2,2,0,0,1,264.06,56.17Z" style="fill:#fff;opacity:0.8"></path><path d="M128.37,166.8a2,2,0,1,1-2.19,1.73A2,2,0,0,1,128.37,166.8Z" style="fill:#FFFFFF"></path><path d="M128.37,166.8a2,2,0,1,1-2.19,1.73A2,2,0,0,1,128.37,166.8Z" style="fill:#fff;opacity:0.8"></path><path d="M339.68,117.24a2,2,0,1,1-2-2A2,2,0,0,1,339.68,117.24Z" style="fill:#FFFFFF"></path><path d="M339.68,117.24a2,2,0,1,1-2-2A2,2,0,0,1,339.68,117.24Z" style="fill:#fff;opacity:0.8"></path><path d="M445.18,138.68a1.71,1.71,0,1,1-1.71-1.71A1.72,1.72,0,0,1,445.18,138.68Z" style="fill:#FFFFFF"></path><path d="M445.18,138.68a1.71,1.71,0,1,1-1.71-1.71A1.72,1.72,0,0,1,445.18,138.68Z" style="fill:#fff;opacity:0.8"></path><path d="M55.45,240.89a2,2,0,1,0,1.67-2.22A2,2,0,0,0,55.45,240.89Z" style="fill:#FFFFFF"></path><path d="M55.45,240.89a2,2,0,1,0,1.67-2.22A2,2,0,0,0,55.45,240.89Z" style="fill:#fff;opacity:0.8"></path><path d="M380.9,74.31a2,2,0,1,0,2.64-.87A2,2,0,0,0,380.9,74.31Z" style="fill:#FFFFFF"></path><path d="M380.9,74.31a2,2,0,1,0,2.64-.87A2,2,0,0,0,380.9,74.31Z" style="fill:#fff;opacity:0.8"></path><path d="M455.93,221.56a1.38,1.38,0,1,1-1,1.67A1.38,1.38,0,0,1,455.93,221.56Z" style="fill:#FFFFFF"></path><path d="M455.93,221.56a1.38,1.38,0,1,1-1,1.67A1.38,1.38,0,0,1,455.93,221.56Z" style="fill:#fff;opacity:0.8"></path><path d="M42.75,150.5a2,2,0,1,1-1.67-2.24A2,2,0,0,1,42.75,150.5Z" style="fill:#FFFFFF"></path><path d="M42.75,150.5a2,2,0,1,1-1.67-2.24A2,2,0,0,1,42.75,150.5Z" style="fill:#fff;opacity:0.8"></path></g></g><g id="freepik--Planets--inject-39"><g id="freepik--Planet--inject-39"><path d="M53.88,85.84a7.53,7.53,0,1,1,7.53-7.53A7.53,7.53,0,0,1,53.88,85.84Zm0-14.12a6.59,6.59,0,1,0,6.59,6.59A6.6,6.6,0,0,0,53.88,71.72Z" style="fill:#FFFFFF"></path><path d="M53.88,76.24a2.07,2.07,0,1,1-2.07,2.07A2.07,2.07,0,0,1,53.88,76.24Z" style="fill:#FFFFFF"></path><path d="M53.88,76.24a2.07,2.07,0,1,1-2.07,2.07A2.07,2.07,0,0,1,53.88,76.24Z" style="fill:#fff;opacity:0.8"></path></g><g id="freepik--planet--inject-39"><path d="M91.58,195.2a7.58,7.58,0,1,1,7.57-7.58A7.58,7.58,0,0,1,91.58,195.2Zm0-14.45a6.87,6.87,0,1,0,6.87,6.87A6.88,6.88,0,0,0,91.58,180.75Z" style="fill:#FFFFFF"></path><path d="M91.58,185.51a2.12,2.12,0,1,1-2.12,2.11A2.11,2.11,0,0,1,91.58,185.51Z" style="fill:#FFFFFF"></path><path d="M91.58,185.51a2.12,2.12,0,1,1-2.12,2.11A2.11,2.11,0,0,1,91.58,185.51Z" style="fill:#fff;opacity:0.8"></path></g><g id="freepik--planet--inject-39"><path d="M413.7,184.44a7.58,7.58,0,1,1,7.57-7.58A7.59,7.59,0,0,1,413.7,184.44Zm0-14.45a6.87,6.87,0,1,0,6.87,6.87A6.88,6.88,0,0,0,413.7,170Z" style="fill:#FFFFFF"></path><path d="M413.7,174.74a2.12,2.12,0,1,1-2.12,2.12A2.12,2.12,0,0,1,413.7,174.74Z" style="fill:#FFFFFF"></path><path d="M413.7,174.74a2.12,2.12,0,1,1-2.12,2.12A2.12,2.12,0,0,1,413.7,174.74Z" style="fill:#fff;opacity:0.8"></path></g><g id="freepik--planet--inject-39"><path d="M454.76,92.4a9.17,9.17,0,1,1,9.16-9.17A9.18,9.18,0,0,1,454.76,92.4Zm0-17.48a8.31,8.31,0,1,0,8.31,8.31A8.32,8.32,0,0,0,454.76,74.92Z" style="fill:#FFFFFF"></path><path d="M454.76,80.67a2.56,2.56,0,1,1-2.57,2.56A2.56,2.56,0,0,1,454.76,80.67Z" style="fill:#FFFFFF"></path><path d="M454.76,80.67a2.56,2.56,0,1,1-2.57,2.56A2.56,2.56,0,0,1,454.76,80.67Z" style="fill:#fff;opacity:0.8"></path></g></g><g id="freepik--Shadow--inject-39"><path id="freepik--shadow--inject-39" d="M185.23,340.44c-35,20.21-35,53,0,73.18s91.75,20.21,126.76,0,35-53,0-73.18S220.24,320.23,185.23,340.44Z" style="fill:#e6e6e6"></path></g><g id="freepik--Alien--inject-39"><g id="freepik--alien--inject-39"><path d="M287.21,305.49c-9-.22-23.51,1.46-26.58,12.55s-1.88,33.93-1.76,40.51c.18,10.48,14.65,17,24.47,18.08s19.49-.35,25.6-5.44,9.58-9.95,4.08-20.35-6.76-30.61-8-36.09S296.35,305.72,287.21,305.49Z" style="fill:#455a64"></path><path d="M310.82,356.26a36,36,0,0,0,3.57-2.47c-.38-.93-.82-1.91-1.37-3a31.15,31.15,0,0,1-1.38-3.07,28.71,28.71,0,0,1-7.07,4.3,51.67,51.67,0,0,1-21.67,3.82,57.2,57.2,0,0,1-19.11-4,53.55,53.55,0,0,1-5.16-2.38c.07,3.11.16,5.81.21,7.73,1,.48,2,.93,3.07,1.34a62.75,62.75,0,0,0,23.25,4.1C294,362.62,303.15,360.81,310.82,356.26Z" style="fill:#37474f"></path><path d="M283.67,338.85a64.6,64.6,0,0,0,18.05-3.91,47.31,47.31,0,0,0,5.94-2.58c-.37-2.15-.7-4.25-1-6.23a37.54,37.54,0,0,1-7.58,3.36,61.25,61.25,0,0,1-17,3.38A40.57,40.57,0,0,1,268,331.1a41.41,41.41,0,0,1-6-2.36c-1-.48-1.91-1-2.87-1.47-.19,2-.32,4.11-.41,6.25a37.06,37.06,0,0,0,6.8,3A47.12,47.12,0,0,0,283.67,338.85Z" style="fill:#37474f"></path><path d="M309.2,371a55.69,55.69,0,0,1-17.63,2.42,21.52,21.52,0,0,1-9.84-2.13,2.54,2.54,0,0,1-1.31-1.25c-.42-1.17.76-2.25,1.82-2.92,6.24-4,12.94-7.19,19.1-11.28a58,58,0,0,0,10.23-8.16c-4.29-10.9-5.43-27.92-6.6-32.89-1.3-5.48-8.62-9-17.76-9.26S263.7,307,260.63,318s-1.88,33.93-1.76,40.51c.18,10.48,14.65,17,24.47,18.08s19.49-.35,25.6-5.44Z" style="opacity:0.2"></path><path d="M306.23,252.24c3.43,7.18,15.67,13.59,28.15,10.75-6.73,10.87-6.34,30.5,3.2,39.78-22-1.39-37.22-19.36-39.67-29.64S306.23,252.24,306.23,252.24Z" style="fill:#455a64"></path><path d="M320.32,292.8a32.34,32.34,0,0,1,.37-22.2,33.59,33.59,0,0,1,3.87-7.17,31.18,31.18,0,0,1-3.54-.67,40.62,40.62,0,0,0-2.41,4.41,36.37,36.37,0,0,0-3.31,12.45,35.09,35.09,0,0,0,3.09,17.32,47.64,47.64,0,0,0,5.17,2.53A34.26,34.26,0,0,1,320.32,292.8Z" style="fill:#37474f"></path><path d="M334.38,263c7-4.06,13.47-10.65,15.92-13s7.2,3.05,4.65,10.65c10.65-6.15,16.63-14.68,19.33-7.59s.84,20.66-5.3,25.77c8.51-3.48,8.3,3.36,3.8,9.12s-19.52,15.63-35.2,14.82C325.45,296,323.09,269.51,334.38,263Z" style="fill:#FFFFFF"></path><path d="M334.38,263c7-4.06,13.47-10.65,15.92-13s7.2,3.05,4.65,10.65c10.65-6.15,16.63-14.68,19.33-7.59s.84,20.66-5.3,25.77c8.51-3.48,8.3,3.36,3.8,9.12s-19.52,15.63-35.2,14.82C325.45,296,323.09,269.51,334.38,263Z" style="fill:#fff;opacity:0.30000000000000004"></path><path d="M372.32,288.51c-2.05,1-4.12,2-6.24,2.82a64.16,64.16,0,0,1-14.72,4.28,49.16,49.16,0,0,1-34.73-8.09,51.14,51.14,0,0,1-18.2-22.84,15.72,15.72,0,0,0-.52,8.45c2.45,10.28,17.64,28.25,39.67,29.64C352.76,303.56,367.33,294.32,372.32,288.51Z" style="opacity:0.2"></path><path d="M321.23,283.8c-.68,9.29-7.65,18.2-19.82,25.22-28.75,16.59-75.49,16.59-104.22,0-12.83-7.4-19.91-16.92-19.91-26.75a3.77,3.77,0,0,1,0-.47h0c6.78-22.07,22.9-38.09,23.84-52.81L306,233.05C306.25,249.91,316.37,259.59,321.23,283.8Z" style="fill:#fafafa"></path><path d="M307.37,243.12A42.42,42.42,0,0,1,306,233.05L201.13,229c-.94,14.72-17.06,30.74-23.84,52.81h0a3.77,3.77,0,0,0,0,.47c0,9.83,7.08,19.35,19.91,26.75a85.93,85.93,0,0,0,19.43,8c-4.25-4.43-7.2-10-7.07-16,.14-7.17,4.53-13.55,9.43-18.79a39.24,39.24,0,0,1,11-8.72c5.63-2.76,12-3.37,18.24-4.21,16.32-2.22,32.58-6.47,46.82-14.74C300,251.74,304.86,248.12,307.37,243.12Z" style="fill:#f0f0f0"></path><path d="M323.45,305.92h0c-1.14,30.3-26,58.89-68.69,58.89-45.84,0-72.15-16.67-79.12-51a67.31,67.31,0,0,1-1.17-8.69,64.1,64.1,0,0,1,2.82-23.36h0a3.77,3.77,0,0,0,0,.47c0,9.83,7.08,19.35,19.91,26.75,28.73,16.59,75.47,16.59,104.22,0,12.17-7,19.14-15.93,19.82-25.22a129.45,129.45,0,0,1,2.11,15.47A54.7,54.7,0,0,1,323.45,305.92Z" style="fill:#FFFFFF"></path><path d="M321.23,283.8c-.68,9.29-7.65,18.2-19.82,25.22-28.75,16.59-75.49,16.59-104.22,0-12.83-7.4-19.91-16.92-19.91-26.75a3.77,3.77,0,0,1,0-.47h0a64.1,64.1,0,0,0-2.82,23.36,67.31,67.31,0,0,0,1.17,8.69c7,34.31,33.28,51,79.12,51a86.57,86.57,0,0,0,16.5-1.55h-1c-7.41-.12-15.55-1.45-20.32-7.12-1.65-1.95-2.88-4.4-5.13-5.6a11.69,11.69,0,0,0-5.08-1c-10.39-.39-21.66.21-30.15-5.78-1.48-2.57.55-6,3.3-7.12s5.85-.59,8.77-.11c18.47,3.05,37.5,4,55.83.22,16.79-3.44,33-11.08,45.11-23.12a58.27,58.27,0,0,0,.82-7.7h0a54.7,54.7,0,0,0-.11-6.65A129.45,129.45,0,0,0,321.23,283.8Z" style="opacity:0.15"></path><path d="M321.23,283.8c-.68,9.29-7.65,18.2-19.82,25.22-28.75,16.59-75.49,16.59-104.22,0-12.83-7.4-19.91-16.92-19.91-26.75a3.77,3.77,0,0,1,0-.47h0c-8.23-4.71-13,12-2.82,23.36h0A61.21,61.21,0,0,0,191.39,319c16,9.24,36.92,13.83,57.9,13.83s41.94-4.59,57.89-13.83a60.92,60.92,0,0,0,16.27-13.09h0C331.48,296.6,325.76,277.51,321.23,283.8Z" style="fill:#e0e0e0"></path><path d="M324,290.8a2.25,2.25,0,0,0-1.84.74,6.69,6.69,0,0,0-1.07,1.55l-.08.14a102.54,102.54,0,0,1-8,11.36,14.09,14.09,0,0,0-1.89,3,2.43,2.43,0,0,0-.24,1.12,1.87,1.87,0,0,0,.73,1.26,3.46,3.46,0,0,0,3.2.41,8.34,8.34,0,0,0,2.81-1.82c3.24-2.86,6.6-6.77,7.64-11.07C325.64,296,326.43,291.13,324,290.8ZM308.5,310.44a4,4,0,0,0-3.74,1.46l-.06.08a2.22,2.22,0,0,0-.47,1c-.22,1.41,1.68,2.34,2.84,2.18a3.92,3.92,0,0,0,2.39-1.48A1.87,1.87,0,0,0,308.5,310.44Z" style="fill:#f5f5f5"></path><path d="M297.8,323.69c-27.7,7.74-57.39,10.09-84.62,1.24a20.47,20.47,0,0,1-7.06-3.45A3.72,3.72,0,0,1,204.6,319c-.13-2.24,2.83-3.17,5.07-3.19q1.61,0,3.18.09A83.42,83.42,0,0,1,197.19,309c-12.83-7.4-19.91-16.92-19.91-26.75a3.77,3.77,0,0,1,0-.47h0c-8.23-4.71-13,12-2.82,23.36h0A61.21,61.21,0,0,0,191.39,319c16,9.24,36.92,13.83,57.9,13.83C266.37,332.85,283.44,329.8,297.8,323.69Z" style="opacity:0.15"></path><path d="M201.14,229c-7.24-3.34-11.81,8.79-1.38,16.13s22.59,16.41,55.81,16.41,50.71-11.87,54.61-16.86,1.32-13.89-4.2-11.6S201.14,229,201.14,229Z" style="fill:#e0e0e0"></path><path d="M301.94,239.24l-6.41,3.86a19,19,0,0,0-4.13,3c-2.63,2.77,2.83,3.82,4.68,3.54a19.79,19.79,0,0,0,10.27-4.92c1.69-1.55,4-5.82,1.47-7.72-1.77-1.35-4,1.1-5.42,1.95Z" style="fill:#f5f5f5"></path><path d="M283.58,249.42a2.08,2.08,0,0,0-1.06,2.49,2.78,2.78,0,0,0,2.17,1.28,6.86,6.86,0,0,0,2.43.1,3.32,3.32,0,0,0,2.09-1.15,1.88,1.88,0,0,0,.43-1.13,2.32,2.32,0,0,0-1.2-1.74C287.18,248.42,284.86,248.69,283.58,249.42Z" style="fill:#f5f5f5"></path><path d="M286.27,257.54c-19.42,2.52-39.25,3-57.79-3a19.85,19.85,0,0,1-6.95-3.4,7.93,7.93,0,0,1-3-6.84c.57-4,6-6.37,9.33-4l-7.79-10.19c-11.22-.66-18.91-1.15-18.91-1.15-7.24-3.34-11.81,8.79-1.38,16.13s22.59,16.41,55.81,16.41A111.29,111.29,0,0,0,286.27,257.54Z" style="opacity:0.15"></path><path d="M184.2,263.69c-.35-6.34,7.42-16.33,20.39-8.69s5.75,23.91-4.15,23.51Z" style="fill:#e0e0e0"></path><path d="M202.34,271.51c2.07-2.91,2.23-7.31-.27-9.86-.72-.73-1.6-1.28-2.25-2.06a2.58,2.58,0,0,1-.51-2.83,3.05,3.05,0,0,1,2.62-1.15,11.3,11.3,0,0,1,4.93,1,18.18,18.18,0,0,0-2.27-1.59c-13-7.64-20.74,2.35-20.39,8.69l12.91,11.78A11.71,11.71,0,0,0,202.34,271.51Z" style="opacity:0.15"></path><path d="M140.55,319.74c-3.85,14.2-4.72,22.53-3.8,28.37s8.23,4.88,11.1-2.51c.06,11.49,9.61,17.72,13,18.45s7-3.2,8.86-17.53c4.31,7.3,13.6,10.09,13.73,3.58.05-2.63-1-14.35,1.23-27.77C177.9,311.14,151.43,307.4,140.55,319.74Z" style="fill:#FFFFFF"></path><path d="M140.55,319.74c-3.85,14.2-4.72,22.53-3.8,28.37s8.23,4.88,11.1-2.51c.06,11.49,9.61,17.72,13,18.45s7-3.2,8.86-17.53c4.31,7.3,13.6,10.09,13.73,3.58.05-2.63-1-14.35,1.23-27.77C177.9,311.14,151.43,307.4,140.55,319.74Z" style="fill:#fff;opacity:0.30000000000000004"></path><path d="M187.66,261.42c7.72-4.46,15-.58,16.2,4.08s-2.2,10.77-5.75,17.41c-3.28,6.15-12.29,29.84-13.44,39.42-7.19-5.57-28.62-13.11-44.12-2.59C147.24,292.86,178.48,266.73,187.66,261.42Z" style="fill:#455a64"></path><path d="M186.3,303.85a34.8,34.8,0,0,0-14.2-7.57,39.07,39.07,0,0,0-16.84-.68c-1.1.2-2.24.45-3.36.77-.9,1.29-1.78,2.6-2.61,3.92.2-.08.39-.19.59-.27a28.94,28.94,0,0,1,7.16-1.63,39.32,39.32,0,0,1,15.27,1,30.37,30.37,0,0,1,11.64,6.2,27.12,27.12,0,0,1,3.83,4.11c.34-1.1.7-2.22,1.07-3.34A34,34,0,0,0,186.3,303.85Z" style="fill:#37474f"></path><path d="M199.8,279.73a28.31,28.31,0,0,0-6-7.13,25.8,25.8,0,0,0-10.34-5.36c-.94-.24-2-.48-3.11-.67q-1.59,1.26-3.35,2.74a23,23,0,0,1,14.48,5.29,23.05,23.05,0,0,1,5.33,6.38,20.32,20.32,0,0,1,1.1,2.31l.2-.38Z" style="fill:#37474f"></path><path d="M181.13,285.13a27.8,27.8,0,0,1,8.35,7.1,28.18,28.18,0,0,1,2.83,4.4c.42-1.11.84-2.2,1.25-3.24A32.3,32.3,0,0,0,182,282.59a31.12,31.12,0,0,0-13.95-3.74l-1.36,0c-1,1-2,2-2.93,3a33.76,33.76,0,0,1,5.13-.18A28.4,28.4,0,0,1,181.13,285.13Z" style="fill:#37474f"></path><path d="M203.86,265.5c-1.19-4.66-8.48-8.54-16.2-4.08-9.18,5.31-40.42,31.44-47.11,58.32-3.85,14.2-4.72,22.53-3.8,28.37a4.79,4.79,0,0,0,1.17,2.62,41.46,41.46,0,0,1,.78-12.56,106.79,106.79,0,0,1,47.48-69.09c3.55-2.23,7.51-4.3,11.68-3.95a9,9,0,0,1,6.18,3.43A8.63,8.63,0,0,0,203.86,265.5Z" style="opacity:0.2"></path><path d="M231.3,341.76c-8.83-1.76-23.41-2.58-28.33,7.83s-7.65,33.11-8.65,39.61c-1.61,10.36,11.53,19.28,21,22s19.27,3,26.15-1,11.14-8.17,7.5-19.35-1.43-31.31-1.77-36.93S240.27,343.55,231.3,341.76Z" style="fill:#455a64"></path><path d="M245.89,395.81a35.16,35.16,0,0,0,4-1.82,31.8,31.8,0,0,0-.85-3.14,32.3,32.3,0,0,1-.83-3.26,28.8,28.8,0,0,1-7.71,3,51.65,51.65,0,0,1-22,.06,57.11,57.11,0,0,1-18.14-7.2,51.07,51.07,0,0,1-4.68-3.23c-.47,3.08-.84,5.75-1.12,7.65.92.65,1.85,1.27,2.8,1.85a62.72,62.72,0,0,0,22.21,8C228.24,399.21,237.56,399,245.89,395.81Z" style="fill:#37474f"></path><path d="M222.11,374a65.3,65.3,0,0,0,18.46-.77,47.5,47.5,0,0,0,6.3-1.54c0-2.17,0-4.3.09-6.3a38.2,38.2,0,0,1-8,2,61.24,61.24,0,0,1-17.31.42,40.5,40.5,0,0,1-13.6-4.14,42.49,42.49,0,0,1-5.52-3.35l-2.58-1.94c-.52,1.95-1,4-1.47,6.08a37.25,37.25,0,0,0,6.19,4.16A47.22,47.22,0,0,0,222.11,374Z" style="fill:#37474f"></path><path d="M245.74,407.35A46.05,46.05,0,0,1,229.68,409c-7.29-.77-14.66-4.68-17.68-11.37a27.79,27.79,0,0,1-2.72-12.05c.18-13.18,1.61-30.29,13-38.89,3.39-2.56,7.9-3.7,12.29-4.11-1.05-.32-2.15-.59-3.29-.82-8.83-1.76-23.41-2.58-28.33,7.83s-7.65,33.11-8.65,39.61c-1.61,10.36,11.53,19.28,21,22s19.27,3,26.15-1A32.06,32.06,0,0,0,245.74,407.35Z" style="opacity:0.2"></path><path d="M280,268.79l-4.6,1c-3.86.88-7.71,1.35-11.3,3.21a7.26,7.26,0,0,0-2.73,2.17,7,7,0,0,0-1,4,34.45,34.45,0,0,0,.46,4.85q.44,3,.86,5.92c.23,1.61.62,4,2.23,4.88a13.32,13.32,0,0,0,5.19.92c8.35.14,20.84-2.84,25.35-4.82a21.56,21.56,0,0,0,6.25-3.66,6,6,0,0,0,1.45-1.85,7,7,0,0,0,.5-2.4,37,37,0,0,0-.79-8.78c-.35-2.26-.94-4.68-2.57-6.43-2.49-2.67-7.18-1.51-10.29-.92S283,268.12,280,268.79Z" style="fill:#455a64"></path><path d="M279.2,283.7a6.39,6.39,0,1,1-6.07-6.7A6.39,6.39,0,0,1,279.2,283.7Z" style="fill:#FFFFFF"></path><path d="M295.28,274a1.37,1.37,0,0,0-1.55-.56,30.94,30.94,0,0,1-5.34,1.51l-2.86.64a21.42,21.42,0,0,0-3.28.88c-1.14.47-.4,1.87.65,1.81a26,26,0,0,0,3.61-.63l2.89-.64a33.18,33.18,0,0,0,5.53-1.65A.94.94,0,0,0,295.28,274Z" style="fill:#FFFFFF"></path><path d="M296.72,280.93a1.39,1.39,0,0,0-1.55-.56,30.94,30.94,0,0,1-5.34,1.51c-.95.21-1.91.42-2.86.65a20.61,20.61,0,0,0-3.28.88c-1.14.47-.4,1.86.65,1.8a24.57,24.57,0,0,0,3.61-.63l2.89-.64a31.49,31.49,0,0,0,5.54-1.65A1,1,0,0,0,296.72,280.93Z" style="fill:#FFFFFF"></path><path d="M362.56,198.71c4.19,11.82,6.36,25.48,5.72,32.16s-.85,11.57-3.31,12.63c-2.93,1.25-3.92-.42-12.48-3.81-9.09-3.61-27.62-5.38-38.85-18.84s-16.51-60.39-16.51-60.39S351.23,175.57,362.56,198.71Z" style="fill:#ffa8a7"></path><path d="M355.37,194.43a32.18,32.18,0,0,1,7.44,5c-.08-.24-.16-.49-.25-.73-11.33-23.14-65.43-38.25-65.43-38.25s5.29,46.93,16.51,60.39a39.68,39.68,0,0,0,12.27,9.66,24.83,24.83,0,0,1-2.69-5c-3.05-7.91-1-16.76-1.28-25.24a43.65,43.65,0,0,0-6-20.42c5.52,4.39,12.44,6.59,19.28,8.33S349,191.31,355.37,194.43Z" style="fill:#f28f8f"></path><path d="M313.64,220.85c-8.84-17.53-8.17-26.09-11.05-45.26-1.9-12.66-14.39-42.16-14.39-42.16l-5.46,5.8s1.17,21,7.14,38.19A143,143,0,0,0,313.64,220.85Z" style="fill:#FFFFFF"></path><path d="M288.2,133.43c4,6.17,11.28,12.33,25.17,20.5s43.85,26.34,49.19,44.78c-6.31-12-19.67-15.82-43.29-24s-31.72-21.44-36.53-35.52Z" style="fill:#FFFFFF"></path><path d="M271.84,135.57c1.66-.51,3.41-.47,5-1.34a9.24,9.24,0,0,0,3.12-2.74c1.77-2.48,2.24-5.69,2.53-8.65.74-7.7.13-15.61,2.51-23.07,1.63-5.12,4.69-10.1,9.36-12.94a14.53,14.53,0,0,1,15.59-.14c.4.25.39,1.46-.24,1.27-6.8-2.07-14.31-.44-18.53,5.52-3.88,5.48-4.6,12.31-4.86,18.84-.25,6.13.31,13-2.51,18.61a13,13,0,0,1-5.75,6c-1.81.87-4.93,1.85-6.36-.08C271.44,136.52,271.37,135.72,271.84,135.57Z" style="fill:#263238"></path><path d="M305.13,89.62a6.17,6.17,0,1,0,3.4-8A6.16,6.16,0,0,0,305.13,89.62Z" style="fill:#FFFFFF"></path><path d="M311.53,90.32a5.15,5.15,0,0,1-3.92-4.8A6,6,0,0,1,308,83.7a5.24,5.24,0,0,1,1.69-2.44,6.65,6.65,0,0,0-1.13.34,6.16,6.16,0,1,0,8.07,7.91A6.9,6.9,0,0,1,311.53,90.32Z" style="opacity:0.2"></path><path d="M310,181.69A64.69,64.69,0,0,0,276.5,125,65.44,65.44,0,0,0,264.7,120c-3.09-1-6.5-1.47-9.08-3.56a7.34,7.34,0,0,1-2.49-4.89c-.24-2.31.23-4.62,0-7A8.62,8.62,0,0,0,250,98.25c-2-1.42-5.1-1.31-6.49.67a9.5,9.5,0,0,0-1.11,3.1,18.31,18.31,0,0,1-.93,2.7c-.6,1.38-1.63,2.87-3.14,2.88-1.87,0-2.89-2.12-3.46-3.9-.78-2.42-1.63-4.9-3.35-6.78S227,94,224.68,95a3.85,3.85,0,0,0-1.39,1,4.21,4.21,0,0,0-.71,1.38c-1.55,4.65,1.81,9.89.22,14.52a3.23,3.23,0,0,1-.84,1.4,3,3,0,0,1-2.85.39c-2.61-.82-4-3.54-6-5.42-2.39-2.24-6.42-3.18-8.9-1-1.84,1.58-2.24,4.38-1.54,6.69a15.34,15.34,0,0,0,4,6c1,1.08,2.35,2.13,2.63,3.61.62,3.24-1.57,4.69-6.51,9.38-13.47,12.8-22.2,30.19-22.2,48.78a64.68,64.68,0,0,0,31.9,55.76c.89.59,1.8,1.17,2.77,1.73,22.78,13.15,59.72,13.15,82.5,0,11.39-6.58,16.09-15.37,18-22.37a32.67,32.67,0,0,0-.67-20.05C311.79,187.4,310,185.3,310,181.69Z" style="fill:#FFFFFF"></path><path d="M310,181.69A64.69,64.69,0,0,0,276.5,125,65.44,65.44,0,0,0,264.7,120c-3.09-1-6.5-1.47-9.08-3.56a7.34,7.34,0,0,1-2.49-4.89c-.24-2.31.23-4.62,0-7A8.62,8.62,0,0,0,250,98.25c-2-1.42-5.1-1.31-6.49.67a9.5,9.5,0,0,0-1.11,3.1,18.31,18.31,0,0,1-.93,2.7c-.6,1.38-1.63,2.87-3.14,2.88-1.87,0-2.89-2.12-3.46-3.9-.78-2.42-1.63-4.9-3.35-6.78S227,94,224.68,95a3.85,3.85,0,0,0-1.39,1,4.21,4.21,0,0,0-.71,1.38c-1.55,4.65,1.81,9.89.22,14.52a3.23,3.23,0,0,1-.84,1.4,3,3,0,0,1-2.85.39c-2.61-.82-4-3.54-6-5.42-2.39-2.24-6.42-3.18-8.9-1-1.84,1.58-2.24,4.38-1.54,6.69a15.34,15.34,0,0,0,4,6c1,1.08,2.35,2.13,2.63,3.61.62,3.24-1.57,4.69-6.51,9.38-13.47,12.8-22.2,30.19-22.2,48.78a64.68,64.68,0,0,0,31.9,55.76c.89.59,1.8,1.17,2.77,1.73,22.78,13.15,59.72,13.15,82.5,0,11.39-6.58,16.09-15.37,18-22.37a32.67,32.67,0,0,0-.67-20.05C311.79,187.4,310,185.3,310,181.69Z" style="fill:#fff;opacity:0.4"></path><path d="M245.91,103.91c1-1.82,1.45-4,3-5.45a2.89,2.89,0,0,1,.7-.48c-2-1.1-4.74-.89-6,.94a9.5,9.5,0,0,0-1.11,3.1,18.31,18.31,0,0,1-.93,2.7,5.18,5.18,0,0,1-2.11,2.62C241.79,108,244.64,106.23,245.91,103.91Zm-23.77,9.22.26,0c2.88-.18,4.56-3.48,4.65-6.37s-.8-5.79-.33-8.64a6.77,6.77,0,0,1,1.57-3.29,5.21,5.21,0,0,0-3.61.13,3.77,3.77,0,0,0-1.39,1,4.21,4.21,0,0,0-.71,1.38c-1.55,4.65,1.81,9.89.22,14.52A3.66,3.66,0,0,1,222.14,113.13Zm30,130.39c-18.75-2.69-37.42-12-47.24-28.15-3.88-6.4-6.24-13.61-7.91-20.9-3.17-13.86-3.61-29.48,4.46-41.19,3.78-5.49,9.19-9.73,12.81-15.32s5-13.64.53-18.57c-1.66-1.82-3.9-3-5.81-4.53s-3.57-3.82-3.29-6.26a6.3,6.3,0,0,1,.69-2.42,4.79,4.79,0,0,0-2.19,1.07c-1.84,1.58-2.24,4.38-1.54,6.69a15.34,15.34,0,0,0,4,6c1,1.08,2.35,2.13,2.63,3.61.62,3.24-1.57,4.69-6.51,9.38-13.47,12.8-22.2,30.19-22.2,48.78a64.68,64.68,0,0,0,31.9,55.76c.89.59,1.8,1.17,2.77,1.73,20.47,11.81,52.34,13,75.13,3.6C277.63,244.55,264.81,245.35,252.13,243.52Z" style="fill:#FFFFFF;opacity:0.30000000000000004"></path><path d="M289.5,218.86c-.14.1-.47.06-.66.14-.35.14-.69.29-1,.42-.68.25-1.37.44-2.06.62a23.3,23.3,0,0,1-4.06.7,16.2,16.2,0,0,1-3.48-.11c-1.56-.22-3-.75-4.59-1-1.11-.16-.65,1.44-.21,1.85a9.27,9.27,0,0,0,5,2,18.18,18.18,0,0,0,4.6.16,13,13,0,0,0,4.47-1.17,7.56,7.56,0,0,0,1.8-1.12,1.89,1.89,0,0,0,.77-1.56l0-.08C290.26,219.48,290,218.54,289.5,218.86Z" style="fill:#263238"></path><path d="M264.2,206.81c1-10.18-3.1-28-18.79-32.46s-27.34,6.86-29.69,17.42c1.66,11.41,7.31,20.69,20.71,23.48A30.14,30.14,0,0,0,264.2,206.81Z" style="fill:#263238"></path><path d="M225,187.65a10.47,10.47,0,0,0-.39,1.56,6.93,6.93,0,0,0,.21,3.59c1.34,3.66,5.08,3.4,7.94,1.74,1.83-1.06,3.45-2.51,5.39-3.37,2.64-1.17,5.72-1.17,8.25-2.56a3.67,3.67,0,0,0,2-2.38c.5-3-2.18-5.67-4.71-6.82-3.33-1.52-8.38-.83-11.6.6A13.08,13.08,0,0,0,225,187.65Z" style="fill:#455a64"></path><path d="M257.11,192a3.87,3.87,0,0,1-1.69,3.16c-2.92,1.7-7.11-1.36-5.35-4.61a3.92,3.92,0,0,1,2.28-1.8,3.85,3.85,0,0,1,4.39,1.61A3.15,3.15,0,0,1,257.11,192Z" style="fill:#455a64"></path><path d="M303.74,193.21c-6.13-5.57-11.21-13.5-9.21-25.4S303,153.48,303,153.48c5.46,1.57,11,11,11.3,19.87S311.87,190.2,303.74,193.21Z" style="fill:#263238"></path><path d="M302.18,161.25c-2.67,2.3-3.76,5.73-3.88,9.17a9.82,9.82,0,0,0,1.69,6.52c.79,1,2.15,1.8,3.34,1.33,1.47-.59,1.69-2.51,2.06-4a28.82,28.82,0,0,1,1.92-4.77,10,10,0,0,0,1.07-5C308.07,161.55,304.75,159,302.18,161.25Z" style="fill:#455a64"></path><path d="M294.56,199.56c-2.26-3.17-6-5.24-10-2.61s-2.1,8.59-2.1,8.59Z" style="fill:#fff;opacity:0.30000000000000004"></path><path d="M282.51,204.54a2.55,2.55,0,0,0,.45,2.22c1.36,1.93,6.23,3.26,8.32,2.19a4.78,4.78,0,0,0,1.55-1.42,10,10,0,0,0,2.3-6.34,2.79,2.79,0,0,0-.21-1.12c-.88-1.88-4.25-1.19-5.81-.65C287.26,200.06,283.16,202.08,282.51,204.54Z" style="fill:#FFFFFF"></path><path d="M205.89,151.13c-1.89.16-3.63.91-5.55.68a10.3,10.3,0,0,1-4.26-1.49c-2.8-1.78-4.58-4.82-6.08-7.69-3.88-7.45-6.5-15.66-11.94-22.21-3.73-4.49-8.84-8.26-14.71-9.21a15.77,15.77,0,0,0-15.76,6.23c-.29.41.2,1.62.76,1.17,6-4.86,14.23-6.28,20.92-2,6.14,3.94,9.66,10.53,12.58,17,2.76,6.07,5,13.17,10.13,17.72A14.11,14.11,0,0,0,200.2,155c2.18.14,5.72-.15,6.38-2.68C206.68,151.92,206.41,151.08,205.89,151.13Z" style="fill:#263238"></path><path d="M153.6,118.44a6.7,6.7,0,1,1-6.7-6.7A6.69,6.69,0,0,1,153.6,118.44Z" style="fill:#FFFFFF"></path><path d="M153.6,118.44a6.63,6.63,0,0,0-.54-2.64,9.18,9.18,0,0,1-1.82,4.06,5.54,5.54,0,0,1-2,1.56,5.86,5.86,0,0,1-6.72-1.93,7.39,7.39,0,0,1-1.49-4.21,6.58,6.58,0,0,0-.79,3.16,6.7,6.7,0,0,0,13.39,0Z" style="opacity:0.2"></path><path d="M124.78,246.24c-1.39,12.66-.36,26.68,1.84,33.13s3.53,11.25,6.21,11.72c3.19.56,3.78-1.32,11.45-6.67,8.15-5.69,26.06-11.76,34-27.68s2.26-63.56,2.26-63.56S130.59,220.72,124.78,246.24Z" style="fill:#ffa8a7"></path><path d="M180.57,193.18S151,209.48,134.7,228.62c4.56-3.65,10.7-5.62,16.27-7.87,7.91-3.21,14-6,20.67-11.33a194.05,194.05,0,0,0,1.46,26.26c.61,4.68,1.52,9.36,1.27,14.08-.52,9.91-6.14,18.62-13.82,25.17,6.76-4.29,13.61-9.89,17.76-18.19C186.27,240.82,180.57,193.18,180.57,193.18Z" style="fill:#f28f8f"></path><path d="M178.31,256.74c4.66-19.39,2-27.7.39-47.32-1.07-13,4.41-45,4.41-45l6.75,4.46s3.71,21,1.83,39.42A145.11,145.11,0,0,1,178.31,256.74Z" style="fill:#FFFFFF"></path><path d="M183.11,164.38c-2.52,7-8.29,14.82-20.12,26.13s-37.22,36.26-38.21,55.73c3.45-13.31,15.77-20.22,37.22-33.77s26.38-28.59,27.86-43.63Z" style="fill:#FFFFFF"></path><path d="M183.11,164.38c-2.52,7-8.29,14.82-20.12,26.13s-37.22,36.26-38.21,55.73c3.45-13.31,15.77-20.22,37.22-33.77s26.38-28.59,27.86-43.63Z" style="fill:#fff;opacity:0.30000000000000004"></path><path d="M263.73,160.67c-.35,2-.69,4.16.06,6.07,1.22,3.09,4.13,4.89,6.84,6.51s7,3.94,8.64,4.64c.74.32.85-.14,1-.56a45.81,45.81,0,0,0,1.93-11.22,9,9,0,0,0-1.06-5.15,24,24,0,0,0-6.89-6.68c-2.59-1.81-4.95-4-7.83-5.42-.18-.09-.42-.16-.56,0a.5.5,0,0,0-.11.27C265.07,153,264.4,156.8,263.73,160.67Z" style="fill:#fff;opacity:0.4"></path></g></g></svg>
